<svg width="120" height="117" viewBox="0 0 120 117" fill="none" xmlns="http://www.w3.org/2000/svg">
  <path d="M96.5528 3.35943C93.4524 1.10057 89.8527 0.0103939 86.2793 0.0103942C80.9016 0.0103947 75.5943 2.48007 72.1786 7.12128C72.1689 7.1311 72.1596 7.14142 72.1508 7.15227C72.1426 7.16312 72.1343 7.17398 72.1266 7.18483L72.1148 7.20188C72.1065 7.21325 72.0988 7.22461 72.0911 7.23545L60.0045 23.9088L47.918 7.23546C47.9061 7.21738 47.8938 7.20343 47.8819 7.18793C47.8763 7.18069 47.8711 7.17345 47.8655 7.16519C42.1724 -0.61374 31.2333 -2.32752 23.4472 3.35064C15.6524 9.02829 13.9095 20.0064 19.5325 27.8463L19.5449 27.866C19.5552 27.8825 19.5634 27.8949 19.5763 27.9078L31.6366 44.5904L12.0967 50.9713C2.91793 53.9685 -2.12671 63.9091 0.859905 73.1208C3.84601 82.3319 13.7432 87.3946 22.9307 84.4061L42.4701 78.0513L42.4788 98.68C42.4881 108.366 50.3443 116.25 59.9958 116.25C69.6473 116.25 77.5035 108.366 77.5122 98.6713L77.5297 78.0601L97.0695 84.4149C97.0772 84.4149 97.0867 84.4166 97.0961 84.4193C97.1085 84.4226 97.1211 84.4276 97.1309 84.4325C106.301 87.3857 116.163 82.3231 119.14 73.129C122.118 63.9355 117.109 54.0299 107.974 51.0064C107.965 51.0038 107.958 51.0007 107.95 50.9976L107.918 50.9852L107.904 50.9801L88.3726 44.5992L100.433 27.9166C100.437 27.9078 100.444 27.899 100.45 27.8902C100.457 27.8814 100.463 27.8727 100.468 27.8639C106.099 20.024 104.348 9.03708 96.5528 3.35943Z" fill="white" fill-opacity="0.4"/>
</svg>
