<svg width="120" height="120" viewBox="0 0 120 120" fill="none" xmlns="http://www.w3.org/2000/svg">
  <path d="M62.2541 8C63.3605 8.48545 64.5813 8.45771 65.7363 8.75938C75.2637 11.2525 82.235 19.037 83.6223 28.7702C83.8096 30.0843 83.8547 31.3985 83.8616 32.7161C83.8859 37.4215 83.872 42.1269 83.8651 46.8287C83.8651 47.1512 83.9552 47.491 83.7783 47.7996C83.4801 47.8725 83.3413 47.6332 83.1679 47.5014C80.0083 45.0777 76.5782 43.1498 72.8116 41.8495C72.0971 41.6033 71.9376 41.2357 71.9341 40.5353C71.9237 37.3556 72.1214 34.1655 71.8509 30.9963C71.3029 24.5953 66.0415 19.9281 59.5141 19.9662C53.018 20.0044 47.7913 24.7722 47.3925 31.2078C47.1982 34.3112 47.2884 37.4319 47.3092 40.5457C47.3127 41.2739 47.0942 41.6033 46.4075 41.846C42.6478 43.1636 39.2142 45.0846 36.0546 47.5084C35.8812 47.6401 35.7425 47.8829 35.4095 47.7927C35.3922 47.6817 35.3575 47.5604 35.3575 47.4356C35.3956 41.6137 35.0939 35.7814 35.4893 29.9768C35.8951 24.0197 38.4408 18.9329 42.7449 14.7754C46.3693 11.2733 50.6839 9.10612 55.6782 8.31554C55.9696 8.27046 56.3788 8.39529 56.5661 8C58.4598 8 60.3569 8 62.2541 8Z" fill="white" fill-opacity="0.4"/>
  <path d="M59.8402 112C40.9622 111.854 26.0035 96.8536 26 78.0877C25.9965 59.3703 41.1044 44.3249 59.8194 44.2833C78.2325 44.2417 93.6942 58.9819 93.7046 78.1189C93.715 97.0062 78.614 111.878 59.8402 112ZM59.8922 95.1546C61.2795 95.1546 62.6668 95.1546 64.0541 95.1546C65.9062 95.1546 66.2357 94.7107 65.8403 92.866C65.0634 89.2356 64.3177 85.5982 63.527 81.9712C63.2287 80.6016 63.5339 79.5197 64.7305 78.7153C65.4588 78.2229 66.1108 77.6369 66.6519 76.9295C68.7155 74.2284 69.1664 71.2498 67.8589 68.1568C66.534 65.0257 64.0541 63.1879 60.6309 62.8863C56.7291 62.5465 53.1672 64.7587 51.8041 68.2123C50.3266 71.9572 51.381 75.9864 54.6655 78.4206C56.1395 79.5128 56.5002 80.7056 56.0875 82.4394C55.2447 85.9831 54.551 89.565 53.8053 93.133C53.4932 94.6275 53.9163 95.1476 55.4285 95.1511C56.9164 95.158 58.4043 95.1546 59.8922 95.1546Z" fill="white" fill-opacity="0.4"/>
</svg>
