<svg width="93" height="450" viewBox="0 0 93 450" fill="none" xmlns="http://www.w3.org/2000/svg">
<path d="M2.96885e-07 43.6683C2.96885e-07 43.6683 29.4105 -1.99952e-07 45.9023 -3.12074e-07C62.3942 -4.24196e-07 92.9041 43.6683 92.9041 43.6683L92.9041 449.258L3.05435e-06 449.258L2.96885e-07 43.6683Z" fill="#E86C56"/>
<rect y="53.3389" width="7.14647" height="34.093" fill="#FDF9F4"/>
<rect x="7.14648" y="53.3389" width="7.14647" height="34.093" fill="#C8AC86"/>
<rect x="14.293" y="53.3389" width="7.14647" height="34.093" fill="#C77D7C"/>
<rect x="21.4395" y="53.3389" width="7.14647" height="34.093" fill="#FDC82A"/>
<rect x="28.5859" y="53.3389" width="7.14647" height="34.093" fill="#E5EDBA"/>
<rect x="35.7324" y="53.3389" width="7.14647" height="34.093" fill="#6E70A9"/>
<rect x="42.8789" y="53.3389" width="7.14647" height="34.093" fill="#556BA5"/>
<rect x="50.0254" y="53.3389" width="7.14647" height="34.093" fill="#EE9A6C"/>
<rect x="57.1719" y="53.3389" width="7.14647" height="34.093" fill="#F6C737"/>
<rect x="64.3184" y="53.3389" width="7.14647" height="34.093" fill="#271427"/>
<rect x="71.4648" y="53.3389" width="7.14647" height="34.093" fill="#2A1A23"/>
<rect x="78.6113" y="53.3389" width="7.14647" height="34.093" fill="#9BD4A7"/>
<rect x="85.7576" y="53.3389" width="7.14647" height="34.093" fill="#BA5F61"/>
<rect x="7.14648" y="121.525" width="7.14647" height="34.093" transform="rotate(-180 7.14648 121.525)" fill="#556BA5"/>
<rect x="14.293" y="121.525" width="7.14647" height="34.093" transform="rotate(-180 14.293 121.525)" fill="#FDC82A"/>
<rect x="21.4395" y="121.525" width="7.14647" height="34.093" transform="rotate(-180 21.4395 121.525)" fill="#6E70A9"/>
<rect x="28.5859" y="121.525" width="7.14647" height="34.093" transform="rotate(-180 28.5859 121.525)" fill="#E5EDBA"/>
<rect x="35.7324" y="121.525" width="7.14647" height="34.093" transform="rotate(-180 35.7324 121.525)" fill="#C77D7C"/>
<rect x="42.8789" y="121.525" width="7.14647" height="34.093" transform="rotate(-180 42.8789 121.525)" fill="#C8AC86"/>
<rect x="50.0254" y="121.525" width="7.14647" height="34.093" transform="rotate(-180 50.0254 121.525)" fill="#FDF9F4"/>
<rect x="57.1719" y="121.525" width="7.14647" height="34.093" transform="rotate(-180 57.1719 121.525)" fill="#6E70A9"/>
<rect x="64.3184" y="121.525" width="7.14647" height="34.093" transform="rotate(-180 64.3184 121.525)" fill="#E5EDBA"/>
<rect x="71.4648" y="121.525" width="7.14647" height="34.093" transform="rotate(-180 71.4648 121.525)" fill="#FDC82A"/>
<rect x="78.6111" y="121.525" width="7.14647" height="34.093" transform="rotate(-180 78.6111 121.525)" fill="#C77D7C"/>
<rect x="85.7576" y="121.525" width="7.14647" height="34.093" transform="rotate(-180 85.7576 121.525)" fill="#2A1A23"/>
<rect x="92.9041" y="121.525" width="7.14647" height="34.093" transform="rotate(-180 92.9041 121.525)" fill="#E5EDBA"/>
<rect y="121.525" width="7.14647" height="34.6429" fill="#FDF9F4"/>
<rect x="7.14648" y="121.525" width="7.14647" height="34.6429" fill="#C8AC86"/>
<rect x="14.293" y="121.525" width="7.14647" height="34.6429" fill="#C77D7C"/>
<rect x="21.4395" y="121.525" width="7.14647" height="34.6429" fill="#E5EDBA"/>
<rect x="28.5859" y="121.525" width="7.14647" height="34.6429" fill="#6E70A9"/>
<rect x="35.7324" y="121.525" width="7.14647" height="34.6429" fill="#FDC82A"/>
<rect x="42.8789" y="121.525" width="7.14647" height="34.6429" fill="#556BA5"/>
<rect x="50.0254" y="121.525" width="7.14647" height="34.6429" fill="#EE9A6C"/>
<rect x="57.1719" y="121.525" width="7.14647" height="34.6429" fill="#F6C737"/>
<rect x="64.3184" y="121.525" width="7.14647" height="34.6429" fill="#271427"/>
<rect x="71.4648" y="121.525" width="7.14647" height="34.6429" fill="#2A1A23"/>
<rect x="78.6113" y="121.525" width="7.14647" height="34.6429" fill="#9BD4A7"/>
<rect x="85.7576" y="121.525" width="7.14647" height="34.6429" fill="#BA5F61"/>
<rect y="156.168" width="7.14647" height="34.093" fill="#F6C737"/>
<rect x="7.14648" y="156.168" width="7.14647" height="34.093" fill="#271427"/>
<rect x="14.293" y="156.168" width="7.14647" height="34.093" fill="#9BD4A7"/>
<rect x="28.5859" y="190.261" width="7.14647" height="34.093" transform="rotate(180 28.5859 190.261)" fill="#EE9A6C"/>
<rect x="28.5859" y="156.168" width="7.14647" height="34.093" fill="#2A1A23"/>
<rect x="42.8789" y="190.261" width="7.14647" height="34.093" transform="rotate(180 42.8789 190.261)" fill="#6E70A9"/>
<rect x="50.0254" y="190.261" width="7.14647" height="34.093" transform="rotate(180 50.0254 190.261)" fill="#E5EDBA"/>
<rect x="57.1719" y="190.261" width="7.14647" height="34.093" transform="rotate(180 57.1719 190.261)" fill="#FDC82A"/>
<rect x="64.3184" y="190.261" width="7.14647" height="34.093" transform="rotate(-180 64.3184 190.261)" fill="#BA5F61"/>
<rect x="71.4648" y="190.261" width="7.14647" height="34.093" transform="rotate(180 71.4648 190.261)" fill="#556BA5"/>
<rect x="71.4648" y="156.168" width="7.14647" height="34.093" fill="#FDF9F4"/>
<rect x="78.6113" y="156.168" width="7.14647" height="34.093" fill="#C8AC86"/>
<rect x="85.7576" y="156.168" width="7.14647" height="34.093" fill="#C77D7C"/>
<rect x="85.7576" y="190.261" width="7.14647" height="34.093" fill="#556BA5"/>
<rect x="78.6111" y="190.261" width="7.14647" height="34.093" fill="#6E70A9"/>
<rect x="71.4646" y="190.261" width="7.14647" height="34.093" fill="#E5EDBA"/>
<rect x="64.3181" y="190.261" width="7.14647" height="34.093" fill="#FDC82A"/>
<rect x="57.1716" y="190.261" width="7.14647" height="34.093" fill="#C77D7C"/>
<rect x="50.0251" y="190.261" width="7.14647" height="34.093" fill="#C8AC86"/>
<rect x="42.8787" y="190.261" width="7.14647" height="34.093" fill="#FDF9F4"/>
<rect x="35.7322" y="190.261" width="7.14647" height="34.093" fill="#6E70A9"/>
<rect x="28.5857" y="190.261" width="7.14647" height="34.093" fill="#E5EDBA"/>
<rect x="21.4392" y="190.261" width="7.14647" height="34.093" fill="#FDC82A"/>
<rect x="14.293" y="190.261" width="7.14647" height="34.093" fill="#C77D7C"/>
<rect x="7.14648" y="190.261" width="7.14647" height="34.093" fill="#2A1A23"/>
<rect y="190.261" width="7.14647" height="34.093" fill="#E5EDBA"/>
<rect y="224.354" width="7.14647" height="34.093" fill="#FDF9F4"/>
<rect x="7.14648" y="224.354" width="7.14647" height="34.093" fill="#C8AC86"/>
<rect x="14.293" y="224.354" width="7.14647" height="34.093" fill="#556BA5"/>
<rect x="21.4395" y="224.354" width="7.14647" height="34.093" fill="#EE9A6C"/>
<rect x="28.5859" y="224.354" width="7.14647" height="34.093" fill="#C77D7C"/>
<rect x="35.7324" y="224.354" width="7.14647" height="34.093" fill="#271427"/>
<rect x="42.8789" y="224.354" width="7.14647" height="34.093" fill="#E5EDBA"/>
<rect x="50.0254" y="224.354" width="7.14647" height="34.093" fill="#9BD4A7"/>
<rect x="57.1719" y="224.354" width="7.14647" height="34.093" fill="#6E70A9"/>
<rect x="64.3184" y="224.354" width="7.14647" height="34.093" fill="#F6C737"/>
<rect x="71.4648" y="224.354" width="7.14647" height="34.093" fill="#2A1A23"/>
<rect x="78.6113" y="224.354" width="7.14647" height="34.093" fill="#FDC82A"/>
<rect x="85.7576" y="224.354" width="7.14647" height="34.093" fill="#BA5F61"/>
<rect y="258.447" width="92.9041" height="53.8889" fill="#F8ECDC"/>
<rect x="92.9041" y="346.429" width="7.14647" height="34.093" transform="rotate(180 92.9041 346.429)" fill="#F6C737"/>
<rect x="85.7576" y="346.429" width="7.14647" height="34.093" transform="rotate(180 85.7576 346.429)" fill="#271427"/>
<rect x="78.6111" y="346.429" width="7.14647" height="34.093" transform="rotate(180 78.6111 346.429)" fill="#9BD4A7"/>
<rect x="64.3181" y="312.336" width="7.14647" height="34.093" fill="#EE9A6C"/>
<rect x="64.3181" y="346.429" width="7.14647" height="34.093" transform="rotate(180 64.3181 346.429)" fill="#2A1A23"/>
<rect x="50.0251" y="312.336" width="7.14647" height="34.093" fill="#6E70A9"/>
<rect x="42.8787" y="312.336" width="7.14647" height="34.093" fill="#E5EDBA"/>
<rect x="35.7322" y="312.336" width="7.14647" height="34.093" fill="#FDC82A"/>
<rect x="28.5857" y="312.336" width="7.14647" height="34.093" fill="#BA5F61"/>
<rect x="21.4392" y="312.336" width="7.14647" height="34.093" fill="#556BA5"/>
<rect x="21.4392" y="346.429" width="7.14647" height="34.093" transform="rotate(180 21.4392 346.429)" fill="#FDF9F4"/>
<rect x="14.2927" y="346.429" width="7.14647" height="34.093" transform="rotate(180 14.2927 346.429)" fill="#C8AC86"/>
<rect x="7.14648" y="346.429" width="7.14647" height="34.093" transform="rotate(180 7.14648 346.429)" fill="#C77D7C"/>
<rect x="92.9041" y="380.522" width="7.14647" height="34.093" transform="rotate(180 92.9041 380.522)" fill="#FDF9F4"/>
<rect x="85.7576" y="380.522" width="7.14647" height="34.093" transform="rotate(180 85.7576 380.522)" fill="#C8AC86"/>
<rect x="78.6111" y="380.522" width="7.14647" height="34.093" transform="rotate(180 78.6111 380.522)" fill="#556BA5"/>
<rect x="71.4646" y="380.522" width="7.14647" height="34.093" transform="rotate(180 71.4646 380.522)" fill="#EE9A6C"/>
<rect x="64.3181" y="380.522" width="7.14647" height="34.093" transform="rotate(180 64.3181 380.522)" fill="#C77D7C"/>
<rect x="57.1716" y="380.522" width="7.14647" height="34.093" transform="rotate(180 57.1716 380.522)" fill="#271427"/>
<rect x="50.0251" y="380.522" width="7.14647" height="34.093" transform="rotate(180 50.0251 380.522)" fill="#E5EDBA"/>
<rect x="42.8787" y="380.522" width="7.14647" height="34.093" transform="rotate(180 42.8787 380.522)" fill="#9BD4A7"/>
<rect x="35.7322" y="380.522" width="7.14647" height="34.093" transform="rotate(180 35.7322 380.522)" fill="#6E70A9"/>
<rect x="28.5857" y="380.522" width="7.14647" height="34.093" transform="rotate(180 28.5857 380.522)" fill="#F6C737"/>
<rect x="21.4392" y="380.522" width="7.14647" height="34.093" transform="rotate(180 21.4392 380.522)" fill="#2A1A23"/>
<rect x="14.2927" y="380.522" width="7.14647" height="34.093" transform="rotate(180 14.2927 380.522)" fill="#FDC82A"/>
<rect x="7.14648" y="380.522" width="7.14647" height="34.093" transform="rotate(180 7.14648 380.522)" fill="#BA5F61"/>
<rect y="380.522" width="7.14647" height="34.643" fill="#FDF9F4"/>
<rect x="7.14648" y="380.522" width="7.14647" height="34.643" fill="#C8AC86"/>
<rect x="14.293" y="380.522" width="7.14647" height="34.643" fill="#C77D7C"/>
<rect x="21.4395" y="380.522" width="7.14647" height="34.643" fill="#FDC82A"/>
<rect x="28.5859" y="380.522" width="7.14647" height="34.643" fill="#E5EDBA"/>
<rect x="35.7324" y="380.522" width="7.14647" height="34.643" fill="#6E70A9"/>
<rect x="42.8789" y="380.522" width="7.14647" height="34.643" fill="#556BA5"/>
<rect x="50.0254" y="380.522" width="7.14647" height="34.643" fill="#EE9A6C"/>
<rect x="57.1719" y="380.522" width="7.14647" height="34.643" fill="#F6C737"/>
<rect x="64.3184" y="380.522" width="7.14647" height="34.643" fill="#271427"/>
<rect x="71.4648" y="380.522" width="7.14647" height="34.643" fill="#2A1A23"/>
<rect x="78.6113" y="380.522" width="7.14647" height="34.643" fill="#9BD4A7"/>
<rect x="85.7576" y="380.522" width="7.14647" height="34.643" fill="#BA5F61"/>
<rect x="92.9041" y="449.258" width="7.14647" height="34.0929" transform="rotate(180 92.9041 449.258)" fill="#FDF9F4"/>
<rect x="85.7576" y="449.258" width="7.14647" height="34.0929" transform="rotate(180 85.7576 449.258)" fill="#C8AC86"/>
<rect x="78.6111" y="449.258" width="7.14647" height="34.0929" transform="rotate(180 78.6111 449.258)" fill="#C77D7C"/>
<rect x="71.4646" y="449.258" width="7.14647" height="34.0929" transform="rotate(180 71.4646 449.258)" fill="#FDC82A"/>
<rect x="64.3181" y="449.258" width="7.14647" height="34.0929" transform="rotate(180 64.3181 449.258)" fill="#E5EDBA"/>
<rect x="57.1716" y="449.258" width="7.14647" height="34.0929" transform="rotate(180 57.1716 449.258)" fill="#6E70A9"/>
<rect x="50.0251" y="449.258" width="7.14647" height="34.0929" transform="rotate(180 50.0251 449.258)" fill="#556BA5"/>
<rect x="42.8787" y="449.258" width="7.14647" height="34.0929" transform="rotate(180 42.8787 449.258)" fill="#EE9A6C"/>
<rect x="35.7322" y="449.258" width="7.14647" height="34.0929" transform="rotate(180 35.7322 449.258)" fill="#F6C737"/>
<rect x="28.5857" y="449.258" width="7.14647" height="34.0929" transform="rotate(180 28.5857 449.258)" fill="#271427"/>
<rect x="21.4392" y="449.258" width="7.14647" height="34.0929" transform="rotate(180 21.4392 449.258)" fill="#2A1A23"/>
<rect x="14.2927" y="449.258" width="7.14647" height="34.0929" transform="rotate(180 14.2927 449.258)" fill="#9BD4A7"/>
<rect x="7.14648" y="449.258" width="7.14647" height="34.0929" transform="rotate(180 7.14648 449.258)" fill="#BA5F61"/>
<ellipse cx="45.1794" cy="44.544" rx="5.72697" ry="5.72708" fill="#D8604B"/>
<g filter="url(#filter0_d)">
<rect x="26.7258" y="278.082" width="39.4524" height="14.6359" rx="5" fill="#FEFEFE"/>
</g>
<defs>
<filter id="filter0_d" x="26.7258" y="278.082" width="44.4524" height="19.6359" filterUnits="userSpaceOnUse" color-interpolation-filters="sRGB">
<feFlood flood-opacity="0" result="BackgroundImageFix"/>
<feColorMatrix in="SourceAlpha" type="matrix" values="0 0 0 0 0 0 0 0 0 0 0 0 0 0 0 0 0 0 127 0"/>
<feOffset dx="5" dy="5"/>
<feColorMatrix type="matrix" values="0 0 0 0 0 0 0 0 0 0 0 0 0 0 0 0 0 0 0.25 0"/>
<feBlend mode="normal" in2="BackgroundImageFix" result="effect1_dropShadow"/>
<feBlend mode="normal" in="SourceGraphic" in2="effect1_dropShadow" result="shape"/>
</filter>
</defs>
</svg>
